<?xml version="1.0" standalone="no"?>
<!DOCTYPE svg PUBLIC "-//W3C//DTD SVG 20010904//EN"
 "http://www.w3.org/TR/2001/REC-SVG-20010904/DTD/svg10.dtd">
<svg version="1.0" xmlns="http://www.w3.org/2000/svg"
 width="752.000000pt" height="752.000000pt" viewBox="0 0 752.000000 752.000000"
 preserveAspectRatio="xMidYMid meet">
<metadata>
Created by potrace 1.14, written by Peter Selinger 2001-2017
</metadata>
<g transform="translate(0.000000,752.000000) scale(0.100000,-0.100000)"
fill="#000000" stroke="none">
<path d="M1077 7514 c-1 -1 -14 -5 -27 -7 -59 -11 -121 -30 -126 -38 -3 -5
-11 -9 -19 -9 -22 0 -134 -69 -195 -119 -56 -46 -152 -151 -159 -174 -2 -6
-13 -24 -23 -39 -11 -16 -16 -28 -12 -28 3 0 1 -7 -6 -15 -7 -8 -9 -15 -6 -15
4 0 2 -8 -3 -18 -6 -11 -12 -30 -15 -43 -7 -40 -18 -103 -22 -123 -12 -67 -21
-170 -31 -371 -10 -180 -9 -1945 1 -2735 4 -311 9 -740 11 -955 2 -214 6 -635
10 -935 3 -300 8 -739 10 -977 l5 -432 25 -25 c14 -14 30 -26 35 -26 4 0 10
-3 12 -7 1 -5 30 -30 63 -58 33 -27 62 -52 65 -55 3 -3 25 -21 50 -39 25 -19
50 -40 55 -47 6 -7 45 -30 86 -53 88 -47 198 -80 324 -96 149 -20 253 -29 485
-40 528 -26 3789 -26 4230 0 30 2 111 6 180 10 69 3 141 8 160 10 19 3 60 7
90 10 30 2 78 7 105 10 28 2 61 7 74 9 12 3 42 8 65 11 22 3 59 10 81 15 22 6
50 13 63 16 177 38 304 134 342 259 6 22 15 53 20 68 5 15 7 119 6 230 -3 156
-7 214 -20 255 -32 101 -73 151 -165 203 -60 34 -190 75 -266 85 -11 1 -20 3
-20 4 0 2 -3 2 -120 18 -103 14 -165 21 -245 27 -36 3 -92 8 -125 10 -33 3
-105 7 -160 10 -55 3 -145 7 -200 10 -55 3 -174 7 -265 10 -91 3 -223 7 -295
10 -71 2 -227 7 -345 10 -118 2 -215 5 -215 5 0 0 -108 3 -240 6 -339 8 -469
12 -475 14 -3 1 -9 1 -15 0 -5 -1 -28 -2 -50 -1 -22 0 -119 3 -215 5 -96 3
-281 7 -410 11 -129 3 -320 8 -425 10 -513 12 -863 22 -897 24 -15 1 -17 15
-18 114 -2 246 -10 947 -15 1377 -7 490 -7 549 1 562 3 4 1 8 -3 8 -10 0 -9
82 1 99 4 6 4 11 -1 11 -4 0 -9 123 -10 273 -10 1685 -45 2763 -99 3092 -3 17
-7 44 -10 60 -12 76 -48 185 -79 241 -68 121 -213 222 -372 258 -52 12 -226
19 -236 10z"/>
</g>
</svg>
